name E:\Dropbox\SEL\BOX\Experiment\240124_SUB1_PJH\c3d\XYZ\UpDown_TrcMot\15_10_trial1_U1_ExtLoadAPP3.mot
datacolumns 37
datarows 10
range 3.618 3.627
endheader

time	    ground_force1_vx	    ground_force1_vy	    ground_force1_vz	    ground_force1_px	    ground_force1_py	    ground_force1_pz	    ground_torque1_x	    ground_torque1_y	    ground_torque1_z	    ground_force2_vx	    ground_force2_vy	    ground_force2_vz	    ground_force2_px	    ground_force2_py	    ground_force2_pz	    ground_torque2_x	    ground_torque2_y	    ground_torque2_z	      hand_force3_vx	      hand_force3_vy	      hand_force3_vz	      hand_force3_px	      hand_force3_py	      hand_force3_pz	      hand_torque3_x	      hand_torque3_y	      hand_torque3_z	      hand_force4_vx	      hand_force4_vy	      hand_force4_vz	      hand_force4_px	      hand_force4_py	      hand_force4_pz	      hand_torque4_x	      hand_torque4_y	      hand_torque4_z	
3.618	         38.11420818	        400.89984742	         -5.66146954	          0.22581036	          0.00000000	          0.23740186	          0.00000000	         -4.71641363	          0.00000000	        -47.68784919	        455.30554174	         -0.57836465	          0.58543308	          0.00000000	          0.21489647	          0.00000000	          4.61027716	          0.00000000	          0.00000000	          0.00000000	          0.00000000	          0.15522932	          1.03229855	         -0.22953629	          0.00000000	          0.00000000	          0.00000000	          0.00000000	          0.00000000	          0.00000000	          0.66915636	          1.06224976	         -0.21821949	          0.00000000	          0.00000000	          0.00000000	
3.619	         38.09881049	        400.78707996	         -5.50072358	          0.22576159	          0.00000000	          0.23678093	          0.00000000	         -4.69899840	          0.00000000	        -47.72794229	        455.32740996	         -0.55765752	          0.58543531	          0.00000000	          0.21459062	          0.00000000	          4.58903346	          0.00000000	          0.00000000	          0.00000000	          0.00000000	          0.15510214	          1.03222893	         -0.23023366	          0.00000000	          0.00000000	          0.00000000	          0.00000000	          0.00000000	          0.00000000	          0.66915530	          1.06215728	         -0.21889170	          0.00000000	          0.00000000	          0.00000000	
3.62	         38.08609877	        400.66563640	         -5.33804739	          0.22571211	          0.00000000	          0.23615681	          0.00000000	         -4.68101114	          0.00000000	        -47.76579844	        455.34145085	         -0.53505722	          0.58543668	          0.00000000	          0.21428478	          0.00000000	          4.56762219	          0.00000000	          0.00000000	          0.00000000	          0.00000000	          0.15497546	          1.03215755	         -0.23093020	          0.00000000	          0.00000000	          0.00000000	          0.00000000	          0.00000000	          0.00000000	          0.66915468	          1.06206359	         -0.21956274	          0.00000000	          0.00000000	          0.00000000	
3.621	         38.07616366	        400.53631874	         -5.17357686	          0.22566196	          0.00000000	          0.23552979	          0.00000000	         -4.66246017	          0.00000000	        -47.80129516	        455.34763717	         -0.51055325	          0.58543721	          0.00000000	          0.21397898	          0.00000000	          4.54606190	          0.00000000	          0.00000000	          0.00000000	          0.00000000	          0.15484931	          1.03208438	         -0.23162587	          0.00000000	          0.00000000	          0.00000000	          0.00000000	          0.00000000	          0.00000000	          0.66915448	          1.06196872	         -0.22023256	          0.00000000	          0.00000000	          0.00000000	
3.622	         38.06908878	        400.39994970	         -5.00745117	          0.22561116	          0.00000000	          0.23490016	          0.00000000	         -4.64335511	          0.00000000	        -47.83431884	        455.34597568	         -0.48414373	          0.58543689	          0.00000000	          0.21367324	          0.00000000	          4.52437141	          0.00000000	          0.00000000	          0.00000000	          0.00000000	          0.15472371	          1.03200941	         -0.23232063	          0.00000000	          0.00000000	          0.00000000	          0.00000000	          0.00000000	          0.00000000	          0.66915472	          1.06187268	         -0.22090113	          0.00000000	          0.00000000	          0.00000000	
3.623	         38.06495026	        400.25736914	         -4.83981218	          0.22555973	          0.00000000	          0.23426823	          0.00000000	         -4.62370689	          0.00000000	        -47.86476523	        455.33650750	         -0.45583523	          0.58543574	          0.00000000	          0.21336760	          0.00000000	          4.50256966	          0.00000000	          0.00000000	          0.00000000	          0.00000000	          0.15459868	          1.03193263	         -0.23301443	          0.00000000	          0.00000000	          0.00000000	          0.00000000	          0.00000000	          0.00000000	          0.66915537	          1.06177545	         -0.22156841	          0.00000000	          0.00000000	          0.00000000	
3.624	         38.06381615	        400.10943043	         -4.67080378	          0.22550773	          0.00000000	          0.23363433	          0.00000000	         -4.60352772	          0.00000000	        -47.89254002	        455.31930811	         -0.42564267	          0.58543376	          0.00000000	          0.21306210	          0.00000000	          4.48067563	          0.00000000	          0.00000000	          0.00000000	          0.00000000	          0.15447424	          1.03185404	         -0.23370723	          0.00000000	          0.00000000	          0.00000000	          0.00000000	          0.00000000	          0.00000000	          0.66915644	          1.06167706	         -0.22223436	          0.00000000	          0.00000000	          0.00000000	
3.625	         38.06574603	        399.95699672	         -4.50057134	          0.22545517	          0.00000000	          0.23299876	          0.00000000	         -4.58283107	          0.00000000	        -47.91755930	        455.29448741	         -0.39358911	          0.58543097	          0.00000000	          0.21275680	          0.00000000	          4.45870831	          0.00000000	          0.00000000	          0.00000000	          0.00000000	          0.15435041	          1.03177362	         -0.23439897	          0.00000000	          0.00000000	          0.00000000	          0.00000000	          0.00000000	          0.00000000	          0.66915793	          1.06157749	         -0.22289896	          0.00000000	          0.00000000	          0.00000000	
3.626	         38.07079052	        399.80093728	         -4.32926107	          0.22540210	          0.00000000	          0.23236186	          0.00000000	         -4.56163160	          0.00000000	        -47.93975001	        455.26218950	         -0.35970555	          0.58542737	          0.00000000	          0.21245173	          0.00000000	          4.43668653	          0.00000000	          0.00000000	          0.00000000	          0.00000000	          0.15422721	          1.03169139	         -0.23508960	          0.00000000	          0.00000000	          0.00000000	          0.00000000	          0.00000000	          0.00000000	          0.66915982	          1.06147675	         -0.22356216	          0.00000000	          0.00000000	          0.00000000	
3.627	         38.07899084	        399.64212375	         -4.15701949	          0.22534854	          0.00000000	          0.23172394	          0.00000000	         -4.53994518	          0.00000000	        -47.95905033	        455.22259231	         -0.32403072	          0.58542300	          0.00000000	          0.21214696	          0.00000000	          4.41462896	          0.00000000	          0.00000000	          0.00000000	          0.00000000	          0.15410466	          1.03160735	         -0.23577906	          0.00000000	          0.00000000	          0.00000000	          0.00000000	          0.00000000	          0.00000000	          0.66916210	          1.06137481	         -0.22422395	          0.00000000	          0.00000000	          0.00000000	
